<?xml version="1.0" encoding="iso-8859-1"?>
<!-- Generator: Adobe Illustrator 19.0.0, SVG Export Plug-In . SVG Version: 6.00 Build 0)  -->
<svg version="1.1" id="Layer_1" xmlns="http://www.w3.org/2000/svg" xmlns:xlink="http://www.w3.org/1999/xlink" x="0px" y="0px"
	 viewBox="0 0 512 512" style="enable-background:new 0 0 512 512;" xml:space="preserve">
<g>
	<g>
		<g>
			<path d="M262.724,108.318c2.108,0,3.818-1.712,3.818-3.818c0-2.11-1.71-3.821-3.818-3.821s-3.818,1.711-3.818,3.821
				C258.908,106.607,260.617,108.318,262.724,108.318z"/>
			<circle cx="232.401" cy="98.947" r="3.82"/>
			<circle cx="283.143" cy="128.049" r="3.819"/>
			<path d="M406.775,179.646c17.496,0,31.731-14.236,31.731-31.734c0-17.496-14.235-31.731-31.731-31.731
				c-17.497,0-31.732,14.235-31.732,31.731C375.042,165.41,389.277,179.646,406.775,179.646z M392.455,141.681
				c0.102,3.705,3.129,6.678,6.86,6.678c3.791,0,6.867-3.074,6.867-6.868c0-3.793-3.076-6.868-6.867-6.868
				c-0.27,0-0.534,0.02-0.795,0.049c2.399-1.5,5.222-2.383,8.255-2.383c8.614,0,15.624,7.008,15.624,15.624
				s-7.009,15.626-15.624,15.626c-8.616,0-15.625-7.009-15.625-15.626C391.15,145.697,391.621,143.591,392.455,141.681z"/>
			<circle cx="249.429" cy="124.232" r="3.819"/>
			<path d="M142.16,119.774c2.108,0,3.818-1.712,3.818-3.818c0-2.11-1.71-3.82-3.818-3.82s-3.819,1.71-3.819,3.82
				C138.342,118.063,140.051,119.774,142.16,119.774z"/>
			<circle cx="210.415" cy="124.232" r="3.819"/>
			<path d="M503.946,260.459H339.999l-1.309-4.639h82.984c46.827,0,84.923-38.097,84.923-84.925
				c0-43.322-32.947-79.735-75.632-84.396c-22.955-26.648-54.601-43.444-89.495-47.422c-0.931-0.127-1.89-0.192-2.854-0.192
				c-11.707,0-21.231,9.523-21.231,21.23v28.058c-19.92-7.859-40.967-11.835-62.729-11.835h-44.504
				c-94.525,0-171.427,76.901-171.427,171.427v12.693H8.054c-4.448,0-8.054,3.605-8.054,8.054v52.342
				c0,4.449,3.606,8.054,8.054,8.054h30.668v29.456c0,63.273,51.477,114.749,114.75,114.749c53.707,0,97.401-43.693,97.401-97.399
				c0-17.332-5.309-33.446-14.383-46.806h122.595l31.449,31.45c-0.217,1.78-0.339,3.582-0.339,5.404
				c0,11.775,4.585,22.844,12.912,31.171c8.325,8.328,19.395,12.914,31.171,12.914c11.775,0,22.845-4.588,31.172-12.914
				c3.145-3.145,3.144-8.245,0-11.389l-50.952-50.952l-0.011-0.01l-5.673-5.673h95.133c4.448,0,8.054-3.605,8.054-8.054v-52.342
				C512,264.065,508.394,260.459,503.946,260.459z M38.722,312.802H16.108v-36.234h22.614V312.802z M153.472,457.007
				c-54.392,0-98.642-44.25-98.642-98.641v-110.6c0-85.643,69.676-155.319,155.319-155.319h44.504
				c12.633,0,24.993,1.492,36.99,4.423c-2.074,0.04-3.745,1.727-3.745,3.813c0,2.106,1.71,3.818,3.818,3.818
				c2.109,0,3.818-1.712,3.818-3.818c0-1.466-0.833-2.723-2.042-3.364c9.748,2.512,19.25,5.988,28.452,10.42
				c2.497,1.202,5.435,1.036,7.779-0.437c2.345-1.474,3.769-4.051,3.769-6.82V60.115c0-2.824,2.298-5.122,5.123-5.122
				c0.248,0,0.484,0.016,0.702,0.047c0.11,0.017,0.22,0.03,0.331,0.041c31.84,3.631,60.627,19.346,81.067,44.255
				c1.409,1.717,3.465,2.776,5.682,2.926c35.94,2.435,64.093,32.583,64.093,68.632c0,37.946-30.87,68.817-68.815,68.817H312.528
				l14.63-5.864c7.158-2.869,12.771-8.354,15.804-15.446c3.033-7.092,3.123-14.938,0.252-22.098
				c-4.416-11.017-14.938-18.136-26.806-18.136c-3.684,0-7.298,0.7-10.737,2.079l-46.166,18.506
				c-13.734,5.511-21.058,20.403-17.04,34.642l1.783,6.317h-66.18l14.629-5.864c7.158-2.869,12.771-8.354,15.804-15.446
				c3.033-7.092,3.123-14.938,0.252-22.098c-4.416-11.017-14.938-18.136-26.806-18.136c-3.684,0-7.298,0.7-10.736,2.079
				l-46.164,18.505c-13.734,5.512-21.06,20.404-17.041,34.643l1.783,6.317H86.677c-4.448,0-8.054,3.605-8.054,8.054v110.599
				c0,41.271,33.577,74.848,74.849,74.848c31.705,0,57.498-25.794,57.498-57.498c0-24.052-19.568-43.621-43.619-43.621
				c-17.93,0-32.516,14.587-32.516,32.516c0,13.031,10.602,23.633,23.633,23.633c6.56,0,11.898,5.338,11.898,11.898
				c0,6.56-5.337,11.897-11.898,11.897c-26.152,0-47.428-21.276-47.428-47.429c0-31.051,25.26-56.312,56.31-56.312
				c37.173,0,67.414,30.243,67.414,67.417C234.766,420.54,198.297,457.007,153.472,457.007z M287.62,240.101l9.441,33.454
				c0.926,3.282,0.519,6.728-1.147,9.702c-1.666,2.976-4.39,5.123-7.674,6.05c-1.139,0.322-2.309,0.485-3.475,0.485
				c-5.682,0-10.729-3.827-12.274-9.306l-14.524-51.467c-1.776-6.295,1.464-12.88,7.534-15.316l46.165-18.505
				c1.526-0.612,3.122-0.922,4.742-0.922c5.248,0,9.901,3.15,11.854,8.023c1.269,3.165,1.23,6.635-0.112,9.77
				c-1.34,3.136-3.822,5.56-6.987,6.828l-28.789,11.541C288.553,231.969,286.502,236.137,287.62,240.101z M323.261,260.459h-13.159
				l-1.309-4.639h13.159L323.261,260.459z M250.101,260.459h-44.563l-1.309-4.639h44.563L250.101,260.459z M153.162,240.099
				l9.439,33.456c0.927,3.281,0.519,6.727-1.147,9.701c-1.666,2.976-4.389,5.123-7.672,6.05c-1.141,0.322-2.311,0.485-3.477,0.485
				c-5.681,0-10.729-3.827-12.274-9.306l-14.524-51.468c-1.777-6.294,1.464-12.879,7.535-15.315l46.164-18.505
				c1.526-0.612,3.121-0.922,4.741-0.922c5.248,0,9.901,3.15,11.855,8.023c1.269,3.165,1.23,6.635-0.112,9.77
				c-1.341,3.136-3.822,5.56-6.987,6.829l-28.788,11.54C154.094,231.969,152.044,236.137,153.162,240.099z M94.731,312.803v-0.001
				v-36.234h25.457l2.34,8.293c1.833,6.496,5.857,11.945,11.112,15.678c-6.194,3.272-11.86,7.412-16.832,12.263H94.731z
				 M104.372,328.91c-5.81,10.208-9.219,21.953-9.428,34.466c-0.141-1.653-0.212-3.323-0.212-5.011V328.91H104.372z M94.731,260.459
				v-4.639h19.602l1.309,4.639H94.731z M188.801,260.459h-13.159l-1.309-4.639h13.159L188.801,260.459z M158.468,372.137
				c-4.149,0-7.526-3.375-7.526-7.526c0-9.048,7.361-16.409,16.409-16.409c15.17,0,27.511,12.342,27.511,27.513
				c0,9.366-3.128,18.017-8.393,24.961c0.003-0.177,0.005-0.355,0.005-0.534C186.474,384.7,173.911,372.137,158.468,372.137z
				 M409.629,352.505l37.908,37.908c-4.027,2.173-8.555,3.329-13.26,3.329c-7.472,0-14.497-2.91-19.78-8.197
				c-5.284-5.284-8.196-12.31-8.196-19.782C406.302,361.059,407.456,356.532,409.629,352.505z M495.893,312.802h-0.001H389.368
				c-3.258,0-6.194,1.962-7.441,4.972c-1.247,3.01-0.557,6.473,1.746,8.778l14.262,14.261c-0.572,0.829-1.12,1.674-1.631,2.536
				l-28.189-28.189c-1.51-1.51-3.559-2.358-5.695-2.358H222.196c-12.958-11.311-29.42-18.692-47.529-20.271
				c0.291-0.46,0.576-0.927,0.843-1.406c2.529-4.518,3.769-9.515,3.681-14.558h75.457l2.34,8.293
				c3.493,12.388,14.916,21.04,27.777,21.04c2.647,0,5.29-0.367,7.851-1.091c7.424-2.094,13.585-6.953,17.354-13.684
				c2.529-4.518,3.769-9.515,3.681-14.558h182.242V312.802z"/>
			<circle cx="125.245" cy="131.87" r="3.816"/>
			<circle cx="198.961" cy="108.317" r="3.817"/>
			<path d="M167.435,131.871c2.108,0,3.819-1.712,3.819-3.818c0-2.113-1.71-3.82-3.819-3.82c-2.108,0-3.818,1.706-3.818,3.82
				C163.617,130.161,165.327,131.871,167.435,131.871z"/>
			<path d="M177.379,104.501c2.107,0,3.818-1.712,3.818-3.818c0-2.111-1.71-3.821-3.818-3.821c-2.11,0-3.819,1.71-3.819,3.821
				C173.56,102.789,175.268,104.501,177.379,104.501z"/>
		</g>
	</g>
</g>
<g>
</g>
<g>
</g>
<g>
</g>
<g>
</g>
<g>
</g>
<g>
</g>
<g>
</g>
<g>
</g>
<g>
</g>
<g>
</g>
<g>
</g>
<g>
</g>
<g>
</g>
<g>
</g>
<g>
</g>
</svg>
